<svg xmlns="http://www.w3.org/2000/svg" xmlns:xlink="http://www.w3.org/1999/xlink" viewBox="0 0 171 113"><path d="M 66.499 14.194 L 66.474 13.843 C 66.475 13.843 66.475 13.843 66.475 13.843 Z M 66.499 14.194 L 66.51 14.353 L 66.5 14.194 Z M 130.888 14.177 C 133.512 15.389 136.004 16.811 138.363 18.414 C 131.321 16.548 123.983 15.598 117.268 14.89 L 117.268 14.89 C 102.246 13.321 87.539 13.773 72.657 16.079 L 72.655 16.079 C 70.966 16.346 69.273 16.609 67.58 16.868 C 67.963 16.51 68.161 15.998 68.177 15.526 C 68.191 15.115 68.075 14.677 67.782 14.342 C 67.634 14.173 67.452 14.043 67.243 13.957 C 87.857 7.447 110.958 4.976 130.888 14.177 Z M 42.874 24.72 C 48.68 21.567 54.915 19.135 61.294 17.977 C 61.105 18.105 60.953 18.272 60.843 18.468 C 60.625 18.857 60.601 19.309 60.7 19.709 C 60.894 20.5 61.638 21.286 62.748 21.124 L 62.749 21.124 C 64.97 20.797 67.182 20.448 69.389 20.099 C 77.043 18.889 84.64 17.688 92.37 17.475 C 99.373 17.298 106.397 17.501 113.394 18.051 L 113.394 18.051 C 124.186 18.893 136.061 20.438 146.259 24.883 C 150.123 28.646 153.512 32.922 156.423 37.5 C 159.4 42.196 161.914 47.287 163.248 52.614 C 161.627 59.42 157.591 66.113 152.861 71.129 L 153.216 71.462 L 152.861 71.129 C 138.767 86.083 116.802 92.818 97.207 97.459 C 82.395 100.961 66.282 104.306 50.735 104.264 C 45.127 103.543 39.577 102.456 34.154 100.948 C 26.252 98.743 18.394 95.34 12.568 89.598 C 7.476 81.732 8.585 71.461 11.337 62.66 C 16.552 46.028 28.409 33.485 42.874 24.72 Z M 71.914 9.042 C 61.589 11.721 51.496 15.559 42.343 20.888 C 30.759 26.827 20.454 35.826 12.809 45.422 L 12.809 45.422 C 7.635 51.929 3.65 59.909 2.493 67.992 C 1.334 76.089 3.016 84.297 9.188 91.183 C 9.572 91.612 9.966 92.03 10.37 92.437 C 10.963 93.299 11.615 94.142 12.33 94.962 C 18.246 101.749 26.779 105.211 35.804 106.737 C 40.728 107.57 45.813 107.829 50.726 107.733 C 51.477 107.823 52.221 107.908 52.957 107.989 C 67.87 109.638 82.892 108.763 97.675 106.556 L 97.676 106.556 C 110.162 104.689 127.997 101.108 142.544 93.833 C 157.086 86.562 168.487 75.518 167.763 58.693 C 167.672 56.557 167.393 54.429 166.948 52.323 C 167.499 49.409 167.62 46.508 167.259 43.693 C 166.496 37.76 163.599 32.238 158.153 27.802 C 155.14 25.345 151.752 23.376 148.142 21.782 C 143.981 17.991 139.471 14.765 134.939 12.308 L 134.693 12.757 L 134.939 12.308 C 115.468 1.757 92.45 3.725 71.915 9.042 Z M 6.188 68.13 C 5.912 69.606 5.709 71.086 5.587 72.563 C 5.597 68.873 6.317 65.118 7.562 61.555 L 7.562 61.555 C 8.285 59.483 9.175 57.475 10.206 55.532 C 8.405 59.574 6.99 63.838 6.188 68.13 Z M 81.605 104.887 C 79.15 105.076 76.684 105.215 74.211 105.297 C 89.731 102.987 105.118 99.729 119.943 94.457 L 119.943 94.457 C 136.947 88.394 155.11 78.838 163.618 61.922 C 163.846 61.468 164.066 61.012 164.276 60.555 C 164.278 61.627 164.224 62.706 164.106 63.789 C 163.235 71.755 158.595 78.048 152.434 83.033 C 146.27 88.02 138.62 91.664 131.824 94.326 L 131.824 94.326 C 115.949 100.556 98.578 103.558 81.605 104.887 Z M 157.08 31.584 C 156.955 31.417 156.828 31.251 156.701 31.085 C 160.693 34.348 162.855 38.287 163.65 42.501 C 161.895 38.683 159.657 35.014 157.08 31.584 Z" fill="rgb(19,170,161)" stroke-width="1.03" stroke="rgb(25,161,168)" stroke-miterlimit="10"></path></svg>